inDegrees=no
num_controls=7
num_derivatives=13
num_iterations=134
num_multipliers=7
num_parameters=0
num_slacks=7
num_states=26
objective=0.475102
objective_accelerations=0.047266
objective_balance=0.003674
objective_effort=0.042624
objective_height=0.375885
objective_ligament=0.005654
solver_duration=1920.237470
status=Solve_Succeeded
success=true
DataType=double
version=3
OpenSimVersion=4.5
endheader
time	/jointset/ground_pelvis/pelvis_tilt/value	/jointset/ground_pelvis/pelvis_tx/value	/jointset/ground_pelvis/pelvis_ty/value	/jointset/hip_l/hip_flexion_l/value	/jointset/hip_l/hip_adduction_l/value	/jointset/hip_l/hip_rotation_l/value	/jointset/back/lumbar_extension/value	/jointset/patellofemoral_l/patellar_flexion_l/value	/jointset/knee_l/knee_flexion_l/value	/jointset/knee_l/knee_adduction_l/value	/jointset/knee_l/knee_rotation_l/value	/jointset/ankle_l/ankle_angle_l/value	/jointset/subtalar_l/subtalar_angle_l/value	/jointset/ground_pelvis/pelvis_tilt/speed	/jointset/ground_pelvis/pelvis_tx/speed	/jointset/ground_pelvis/pelvis_ty/speed	/jointset/hip_l/hip_flexion_l/speed	/jointset/hip_l/hip_adduction_l/speed	/jointset/hip_l/hip_rotation_l/speed	/jointset/back/lumbar_extension/speed	/jointset/patellofemoral_l/patellar_flexion_l/speed	/jointset/knee_l/knee_flexion_l/speed	/jointset/knee_l/knee_adduction_l/speed	/jointset/knee_l/knee_rotation_l/speed	/jointset/ankle_l/ankle_angle_l/speed	/jointset/subtalar_l/subtalar_angle_l/speed	/forceset/tau_hip_flexion_l	/forceset/tau_hip_adduction_l	/forceset/tau_hip_rotation_l	/forceset/tau_knee_flexion_l	/forceset/tau_ankle_angle_l	/forceset/tau_subtalar_angle_l	/forceset/tau_lumbar_extension	lambda_cid13_p0	lambda_cid13_p1	lambda_cid13_p2	lambda_cid13_p3	lambda_cid13_p4	lambda_cid13_p5	lambda_cid14_p0	/jointset/ground_pelvis/pelvis_tilt/accel	/jointset/ground_pelvis/pelvis_tx/accel	/jointset/ground_pelvis/pelvis_ty/accel	/jointset/hip_l/hip_flexion_l/accel	/jointset/hip_l/hip_adduction_l/accel	/jointset/hip_l/hip_rotation_l/accel	/jointset/back/lumbar_extension/accel	/jointset/patellofemoral_l/patellar_flexion_l/accel	/jointset/knee_l/knee_flexion_l/accel	/jointset/knee_l/knee_adduction_l/accel	/jointset/knee_l/knee_rotation_l/accel	/jointset/ankle_l/ankle_angle_l/accel	/jointset/subtalar_l/subtalar_angle_l/accel	gamma_cid13_p0	gamma_cid13_p1	gamma_cid13_p2	gamma_cid13_p3	gamma_cid13_p4	gamma_cid13_p5	gamma_cid14_p0
1	-0.1216527700395909	-0.06185566893862249	0.6585795842146538	1.404890740934344	-0.3234886241128563	0.07930030031073017	-0.9599309708759606	1.467865631373264	1.467865631373101	-0.04163280507367838	-0.1745319372021754	0.2881480183583224	0.07494925913327047	0.09787353496180334	0.02401763420058009	0.07068030563281594	-0.2933772595771593	-0.00851260979476374	-0.06263675309853511	-1.778436966696044e-05	-0.1565854765415836	-0.1565854765415789	-0.003473995362673133	-3.547914966501007e-05	0.03049459769695049	0.003515475086104899	-0.3862596736853752	0.009097978090360821	0.002073677526687063	-0.3940777829806466	0.04044704954824505	0.02502276690072137	0.4347451779501605	-38.95323438681774	-2.532243444109673	-1.780767527362476	14.61891202006428	-809.3300970631392	-71.96746886168542	-0.04070677645890108	0.8162465900016606	-0.03274587423279575	1.706865795187866	-5.349249594793736	-0.1573597359708979	-1.656099801553508	-0.006994390334629422	-5.313255749744384	-5.313255749744141	-0.5004106796336132	-0.01956982582001124	-1.158341110565239	-0.7119543279215017	-9.507348036937873e-09	1.737365046339055e-08	4.597512750906545e-08	7.045231729016702e-09	-2.402001758567474e-08	1.301770480827221e-07	-1.532207728201442e-08
1.01	-0.1206334019691828	-0.0616170907642684	0.6593715419001158	1.401690150596588	-0.3235808428537917	0.07859052660856733	-0.9599310611430329	1.466034410236748	1.466034410236617	-0.04169089672763633	-0.1745321548805164	0.2883950820237731	0.07494988398499008	0.1060183153409754	0.02370283124977038	0.08770206653142562	-0.3467371284164489	-0.009920420000434842	-0.07931078987858282	-1.925017781266733e-06	-0.2096569790598109	-0.2096569790597947	-0.008142134068904981	-7.134215321654704e-06	0.01889846452236089	-0.003385269513531909	-0.3855495836052654	0.009288127970363436	0.002002812457074238	-0.3937589306126124	0.04006911509039009	0.02521670974419231	0.4343928196588754	-39.03538838158713	-2.62187059567578	-1.743882322151873	14.57989297964064	-808.9481180879943	-72.07050315118762	-0.04073970160056959	0.8163269303720123	-0.03012098193201538	1.698450724259312	-5.328806573991113	-0.1308882850417372	-1.671992905398864	0.005627702834663869	-5.303827364320418	-5.303827364318853	-0.4496977931174227	0.01419368927020609	-1.163200768177001	-0.6783589877848754	-1.463192491770101e-08	8.547467001306605e-09	7.224139234108784e-08	9.656867970769779e-09	-2.882008229636384e-08	1.531814626776782e-07	-2.185040316408067e-08
1.02	-0.1195320394612834	-0.06138151531470781	0.6603334410919762	1.39795607136134	-0.3236868190212191	0.0777142250807709	-0.9599310424956629	1.463672528102758	1.463672528102659	-0.0417956062340559	-0.1745320577022756	0.2885255940880237	0.07488165649835331	0.1142724224600285	0.02341708924187962	0.1046686069125051	-0.4000750390755213	-0.01126409509316699	-0.09594231822536894	3.998529483267435e-06	-0.2627176760363791	-0.2627176760363527	-0.01279756585511519	2.749216736952961e-05	0.007184277456924133	-0.0102549925851729	-0.3848394935251564	0.009478277850366677	0.001931947387464166	-0.3934400782445779	0.03969118063253553	0.02541065258766425	0.4340404613675898	-39.1283989947374	-2.708579679066626	-1.708624150839901	14.59832176372621	-808.704287145793	-72.1483493907181	-0.04077425633248703	0.8381119379778804	-0.02693368564900662	1.695821691681817	-5.344857958750279	-0.1445327133831076	-1.64759811490119	-0.008981551258849755	-5.311094641412563	-5.311094641412561	-0.4978692956292844	-0.01831353615044468	-1.181951888734673	-0.7057500223223393	-1.901988159361501e-08	-9.951243755791715e-10	9.766888212689289e-08	1.024438785596034e-08	-3.205332778891864e-08	1.748611589955386e-07	-2.846302845481493e-08
1.03	-0.1183482173499093	-0.06114844732473995	0.6614645231597379	1.393689616039213	-0.323805913697324	0.07667193963918742	-0.959929426362212	1.460780596843759	1.460780596843392	-0.04194674302165087	-0.1745316457885966	0.2885386547671279	0.07474502628632507	0.122446249722612	0.02322187148482912	0.1215178943244682	-0.4531220768972251	-0.01254420225320225	-0.1124977478825982	0.0004778713543304478	-0.3156163803672183	-0.315616380367216	-0.01741921934270092	4.976472264875969e-05	-0.004563417624516266	-0.01705157196078402	-0.3844725629762943	0.009646445731472287	0.001830016213365206	-0.3928322462047451	0.03989648220570403	0.02563766493613714	0.4343619517811498	-39.0109335491748	-2.85282643504624	-1.656970804258049	14.04778345822475	-808.4490924422053	-72.20666122080848	-0.04081344826152539	0.8001523477504074	-0.01200924508269053	1.674988345033057	-5.270538539671546	-0.1181641503631473	-1.6569894968095	0.09936817751470098	-5.271421964113973	-5.271421964117623	-0.4427479406675283	0.01175847032373602	-1.169871506178658	-0.663702921820206	-2.340032173682647e-08	-1.054502603730987e-08	1.230878129836549e-07	1.081125349261453e-08	-3.527058533026797e-08	1.965273377799592e-07	-3.507651394359682e-08
1.04	-0.1170840301204389	-0.06091657019721254	0.6627631993174351	1.388895507969711	-0.3239374923316392	0.07546460507989676	-0.9599183122048381	1.457361245814413	1.457361245813778	-0.04214378325718978	-0.1745311589855735	0.2884344998577517	0.07454101207521276	0.1303454460792684	0.02317891675379203	0.1381874248996098	-0.5056055885505742	-0.01376088673521403	-0.1289521417668558	0.001903603305504428	-0.3682016301058329	-0.3682016301058559	-0.02197825544405949	4.247003619308276e-05	-0.01625884023915407	-0.02373179240198352	-0.3841056324274328	0.009814613612577875	0.001728085039271827	-0.392224414164912	0.04010178377887261	0.02586467728460997	0.4346834421947094	-38.90443251394023	-2.994151050980729	-1.606928254240243	13.55460462847941	-808.3328956654524	-72.24104961307964	-0.04085433336619537	0.7831857567924509	0.003518919553670675	1.659870324317489	-5.232152725079343	-0.1318481777784155	-1.627390960306857	0.1813902740064227	-5.248403722967633	-5.248403722967897	-0.4853458183838538	-0.02422698449743039	-1.171497395374159	-0.682478235440023	-2.967200100498442e-08	-2.193571607577327e-08	1.468005905161879e-07	1.585163986846846e-08	-4.272049559129302e-08	2.101011976678761e-07	-4.053153135723753e-08
1.05	-0.1157421401703658	-0.06068429982815512	0.6642277103195878	1.383579129946738	-0.3240808704142363	0.07409326838142971	-0.9598879069092908	1.453417438171068	1.453417438170659	-0.04238614034629081	-0.1745308157318644	0.2882136474643333	0.07427085799289578	0.1379947293445077	0.02330679028891837	0.1546887775370764	-0.5576016998323626	-0.01489969282656629	-0.1452976263659403	0.004364428047101388	-0.420525602767063	-0.4205256027670796	-0.02648490060067417	2.753551792759272e-05	-0.02790347597110764	-0.03027242111346166	-0.3841235689496498	0.01006629380176575	0.001594699480315573	-0.3913138884821384	0.04014977913960207	0.02619359834132312	0.4354617061652394	-38.84940580711176	-3.183932565928383	-1.534070513647056	12.97443549968968	-808.4030776976988	-72.32835500631832	-0.04090939197053182	0.7501236616974669	0.0221708138587166	1.641357897256879	-5.173097991127793	-0.1026567980963882	-1.635528761461563	0.3064744106509082	-5.219240423472182	-5.219240423471047	-0.4321123651276569	0.01011607682978096	-1.159725903920146	-0.6358792829005713	-3.600278149579693e-08	-3.338393075100955e-08	1.704600507573388e-07	2.103182376742236e-08	-5.03026762498079e-08	2.234221725902773e-07	-4.595034664353009e-08
1.06	-0.1143248925775789	-0.06044980087507311	0.6658564528808744	1.377744839278668	-0.3242351885524035	0.07255899652662119	-0.9598272841990423	1.448951421523956	1.448951421523773	-0.042673321587123	-0.1745305732708728	0.2878765928652323	0.07393609280468424	0.1454169746220596	0.02362463355870838	0.1710337367263673	-0.6091881175701194	-0.01594889784922851	-0.1615391730351175	0.007947086245281397	-0.4726434308591528	-0.4726434308591619	-0.03094308579038457	2.23114924976683e-05	-0.03949928137562895	-0.03665401358089438	-0.3841415054718645	0.01031797399095312	0.001461313921365013	-0.3904033627993647	0.04019777450033085	0.02652251939803523	0.4362399701357716	-38.80562349633136	-3.370680428026365	-1.462912733742938	12.44983301397353	-808.6166709129195	-72.3929349402831	-0.04096625414533056	0.7377781592549877	0.04151286648640191	1.628591634682328	-5.150214016273004	-0.113927964040408	-1.606603374325399	0.4057569653230241	-5.207174809139583	-5.20717480913966	-0.4756538250029979	-0.02228488593031974	-1.16173132988771	-0.6506709866309427	-4.06854164515109e-08	-4.564887198454231e-08	1.927913496600185e-07	2.229250231820898e-08	-5.548764420297058e-08	2.334837653684584e-07	-5.128334863264812e-08
1.07	-0.1128345231227186	-0.06021114228187559	0.667647786784911	1.371396853248787	-0.3243995435463798	0.07086292966047798	-0.9597252334366472	1.443965392347256	1.443965392347258	-0.04300489269900275	-0.1745303707117253	0.2874238118289734	0.07353832183282552	0.1526209542296765	0.02414189201538996	0.1871993064853514	-0.6603276317516901	-0.01690543558851026	-0.1776503155528124	0.01265140711144599	-0.524514938348407	-0.5245149383483807	-0.03536359939355732	1.771574450601955e-05	-0.05104968659363763	-0.04287066577303069	-0.3838597854265638	0.01058091178143711	0.001298855977412765	-0.3892257858466877	0.0404128438150786	0.02691768981691359	0.4367816905329165	-38.6741411645228	-3.610943321131931	-1.372500624158473	11.79851025037842	-808.4057032163839	-72.49711581147263	-0.04103616828607488	0.7063089977911831	0.06205805926031109	1.605466826625331	-5.083607724333106	-0.08403756816645347	-1.609833617992958	0.5310207789029044	-5.170007401242991	-5.170007401237643	-0.4241541677134347	0.01042897095308433	-1.150614192075613	-0.6027509188790729	-4.528038409152813e-08	-5.795725612011211e-08	2.150520016829922e-07	2.33446965419654e-08	-6.054510084201877e-08	2.433719867559895e-07	-5.661178608468239e-08
1.08	-0.111273193644527	-0.059966265959311	0.6695997618225612	1.364539914556043	-0.3245729680956078	0.06900645858365764	-0.9595704892392618	1.438462074359178	1.438462074359366	-0.04338044975486233	-0.1745302189320198	0.2868557429256706	0.0730792666223706	0.1596089792883398	0.02486817943212193	0.2031619634490902	-0.7109786501426215	-0.01776280889956765	-0.1936200151705638	0.01848577324319982	-0.576101193134648	-0.5761011931345863	-0.03974027458629117	1.215560398124717e-05	-0.06255685478437308	-0.04891086130013095	-0.383578065381262	0.01084384957192099	0.001136398033458499	-0.3880482088940108	0.04062791312982605	0.02731286023579172	0.4373234109300624	-38.55416005425741	-3.848080872304554	-1.283856484379883	11.20099438244818	-808.3417262203495	-72.58050253471905	-0.04110819829448211	0.6945872494642724	0.0833186584964777	1.588009075633281	-5.052514858145179	-0.0940950783955362	-1.578314794336685	0.6317660184408692	-5.150124268536953	-5.150124268537017	-0.4668861429152151	-0.02247776443694507	-1.153083924433069	-0.6153796536237351	-4.97960533995396e-08	-7.234781522716713e-08	2.329163941515683e-07	2.412693211464227e-08	-6.592925620553189e-08	2.474475922492867e-07	-6.120817556763397e-08
